<svg width="470" height="201" viewBox="0 0 470 201" fill="none" xmlns="http://www.w3.org/2000/svg">
<path d="M381.75 59.0109C384.091 53.2543 387.65 48.0005 392.123 43.6947C393.35 42.5154 394.67 41.3872 396.23 40.7085C397.789 40.0298 399.631 39.8429 401.18 40.5483C403.665 41.6787 404.719 44.9008 403.995 47.5399C403.272 50.179 401.146 52.2307 398.777 53.5858C396.407 54.941 393.76 55.7131 391.209 56.6811C388.657 57.6491 386.11 58.8685 384.277 60.8957C389.176 60.6865 394.075 60.4795 398.974 60.2704C399.544 60.2459 400.221 60.2748 400.532 60.7555C400.836 61.2272 400.567 61.9015 400.106 62.2219C399.644 62.5423 399.056 62.6024 398.497 62.6447C393.74 63.0141 388.95 62.9384 384.209 62.4199C383.243 62.3153 382.152 62.1129 381.633 61.2895C381.114 60.4662 381.957 59.0376 381.757 59.0109H381.75Z" fill="white"/>
<path d="M381.444 59.5516C384.277 51.7411 391.007 38.8438 400.842 40.0832C402.247 40.2812 403.647 40.5994 404.885 41.3449C410.421 44.7962 403.376 52.6913 399.899 55.0967C399.054 55.6441 398.022 56.0536 397.093 56.4408C392.939 58.0563 388.671 59.3603 384.404 60.6264C388.318 59.3803 392.22 58.0852 396.037 56.5676C397.25 56.0603 398.608 55.5307 399.704 54.8075C402.511 52.8159 408.774 45.7864 405.293 42.5065C404.062 41.4117 402.349 41.0645 400.749 40.8665C393.707 40.1722 388.91 46.997 385.95 52.5266C384.703 54.921 383.618 57.4221 382.771 59.9855C382.471 60.8645 381.173 60.464 381.444 59.5539V59.5516Z" fill="black"/>
<path d="M384.164 60.9357C388.713 58.913 394.357 57.322 399.331 58.3723C400.652 58.7127 402.489 59.2312 403.048 60.6353C403.574 62.3398 401.683 63.4947 400.352 64.0221C397.259 65.197 393.827 65.0746 390.643 64.3714C389.048 64.0087 387.492 63.4747 386.004 62.7982C385.653 62.638 385.498 62.2241 385.658 61.8725C385.819 61.512 386.252 61.3585 386.603 61.5343C390.046 63.2455 393.973 64.2046 397.818 63.7217C398.948 63.5659 400.075 63.2922 401.071 62.7448C401.896 62.3064 402.904 61.3719 402.145 60.4506C401.437 59.5984 400.237 59.2334 399.198 58.9197C394.366 57.7158 388.708 59.1066 384.167 60.9313L384.164 60.9357Z" fill="black"/>
<path d="M403.827 106.769C395.584 115.763 378.203 113.195 365.006 101.03C351.806 88.8644 349.843 72.8985 358.085 63.9042C366.328 54.9098 381.653 56.2917 394.852 68.457C408.051 80.6222 412.069 97.7742 403.827 106.769Z" fill="#F4CC67"/>
<path d="M390.332 112.841C388.99 112.841 387.603 112.737 386.175 112.525C378.706 111.421 371.021 107.521 364.535 101.544C358.174 95.6803 354.012 88.524 352.818 81.3922C351.653 74.4272 353.342 68.0475 357.573 63.428C361.762 58.8551 367.841 56.7679 374.69 57.5467C381.577 58.3322 388.906 62.0216 395.325 67.9385C401.81 73.9154 406.332 81.2675 408.06 88.6375C409.811 96.1053 408.488 102.712 404.341 107.238C400.978 110.91 396.097 112.839 390.332 112.839V112.841ZM371.924 58.7884C366.605 58.7884 361.942 60.7266 358.598 64.3759C354.664 68.6706 353.1 74.6319 354.192 81.163C355.334 87.9877 359.341 94.8614 365.476 100.516C371.757 106.306 379.181 110.08 386.376 111.143C393.474 112.191 399.489 110.471 403.314 106.297C411.284 97.6006 407.275 80.8559 394.382 68.971C388.178 63.2544 381.129 59.6918 374.533 58.9397C373.65 58.8396 372.778 58.7884 371.926 58.7884H371.924Z" fill="black"/>
<path d="M370.674 95.8961C381.78 95.8961 390.783 86.867 390.783 75.729C390.783 64.591 381.78 55.5618 370.674 55.5618C359.569 55.5618 350.566 64.591 350.566 75.729C350.566 86.867 359.569 95.8961 370.674 95.8961Z" fill="black"/>
<path d="M398.08 72.0752C400.055 79.1491 398.364 86.8617 393.998 92.7096C393.67 93.1124 393.279 93.6286 392.94 94.0225C392.715 94.2717 392.261 94.7746 392.034 95.0216C391.761 95.3109 391.355 95.6803 391.071 95.9651C387.029 99.7569 381.537 102.14 376.035 102.343C383.783 100.749 390.435 96.3078 394.47 89.4786C397.588 84.2516 398.746 78.1166 398.078 72.0774L398.08 72.0752Z" fill="black"/>
<path d="M403.756 79.7655C405.73 86.8395 404.04 94.5521 399.673 100.4C399.345 100.803 398.954 101.319 398.615 101.713C398.391 101.962 397.936 102.465 397.71 102.712C397.437 103.001 397.031 103.371 396.747 103.655C392.704 107.447 387.213 109.83 381.71 110.033C389.458 108.44 396.11 103.998 400.146 97.1689C403.263 91.9419 404.421 85.807 403.753 79.7677L403.756 79.7655Z" fill="black"/>
<path d="M356.128 63.2099C356.006 63.2099 355.884 63.1676 355.784 63.0808C354.344 61.8191 352.565 60.8178 350.493 60.1035C350.22 60.01 350.076 59.7119 350.169 59.4382C350.262 59.1644 350.559 59.0198 350.832 59.1133C353.031 59.8721 354.93 60.9424 356.472 62.2931C356.69 62.4845 356.712 62.8138 356.523 63.0319C356.419 63.1498 356.275 63.2121 356.128 63.2121V63.2099Z" fill="black"/>
<path d="M369.257 59.1823C368.97 59.1823 368.735 58.9486 368.733 58.6615C368.713 55.5195 368.034 49.5404 363.699 44.7851C363.503 44.5715 363.519 44.2399 363.732 44.0441C363.945 43.8483 364.276 43.8638 364.471 44.0775C369.044 49.0909 369.76 55.3638 369.78 58.6549C369.78 58.9442 369.549 59.18 369.261 59.1823H369.259H369.257Z" fill="black"/>
<path d="M367.666 104.003C367.249 108.275 367.704 112.628 368.691 116.818C367.24 112.69 366.317 108.353 366.272 103.94C366.304 102.966 367.717 103.024 367.666 104.003Z" fill="black"/>
<path d="M377.812 110.425C375.986 114.308 373.373 117.812 370.384 120.903C373.741 118.104 376.747 114.855 379.039 111.088C379.51 110.233 378.267 109.559 377.812 110.425Z" fill="black"/>
<path d="M375.001 108.916C373.776 112.14 371.948 115.075 369.778 117.714C371.531 114.862 372.922 111.757 373.668 108.509C373.934 107.554 375.312 107.972 375.001 108.916Z" fill="black"/>
<path d="M347.751 60.642C348.717 60.642 349.501 59.8559 349.501 58.8863C349.501 57.9167 348.717 57.1306 347.751 57.1306C346.784 57.1306 346 57.9167 346 58.8863C346 59.8559 346.784 60.642 347.751 60.642Z" fill="black"/>
<path d="M361.993 43.9084C362.959 43.9084 363.743 43.1223 363.743 42.1527C363.743 41.183 362.959 40.397 361.993 40.397C361.026 40.397 360.242 41.183 360.242 42.1527C360.242 43.1223 361.026 43.9084 361.993 43.9084Z" fill="black"/>
<path d="M368.928 81.6992C368.252 81.5746 367.599 81.3298 367.005 80.9694C366.758 80.8203 366.678 80.4976 366.827 80.2484C366.976 80.0014 367.298 79.9213 367.546 80.0704C368.3 80.5288 369.17 80.7602 370.055 80.7402C371.131 80.7157 372.132 80.3352 372.951 79.6409C373.17 79.454 373.501 79.4807 373.687 79.7032C373.874 79.9235 373.847 80.2551 373.625 80.442C372.636 81.2809 371.376 81.7593 370.078 81.7905C369.689 81.7994 369.303 81.7682 368.926 81.6992H368.928Z" fill="white"/>
<path d="M359.867 71.2563C360.68 71.2563 361.338 70.5957 361.338 69.781C361.338 68.9662 360.68 68.3056 359.867 68.3056C359.055 68.3056 358.396 68.9662 358.396 69.781C358.396 70.5957 359.055 71.2563 359.867 71.2563Z" fill="white"/>
<path d="M379.425 70.7934C380.238 70.7934 380.896 70.1329 380.896 69.3181C380.896 68.5033 380.238 67.8428 379.425 67.8428C378.613 67.8428 377.954 68.5033 377.954 69.3181C377.954 70.1329 378.613 70.7934 379.425 70.7934Z" fill="white"/>
<path d="M368.096 100.24C369.059 100.035 370.093 100.278 370.492 101.21C370.732 101.806 371.169 102.256 371.58 102.73C371.904 103.115 372.294 103.462 372.713 103.74C373.477 104.274 374.471 104.383 375.272 104.855C376.328 105.445 377.215 106.268 378.174 107C380.104 108.491 382.096 109.857 384.147 111.201C384.2 111.237 384.215 111.308 384.18 111.361C384.149 111.406 384.095 111.424 384.047 111.408C383.226 111.235 382.436 110.981 381.664 110.685C380.912 110.402 380.113 110.046 379.396 109.688C378.478 109.221 377.577 108.713 376.72 108.137C376.195 107.765 375.829 107.231 375.447 106.715C374.961 106.028 374.302 105.518 373.667 104.993C372.933 104.437 372.221 103.831 371.364 103.469C370.861 103.266 370.397 103.041 369.911 102.81C369.523 102.647 369.05 102.563 368.726 102.285C368.161 101.771 367.965 101.034 368.098 100.238L368.096 100.24Z" fill="#F4CC67"/>
<path d="M371.449 99.7902C372.529 99.5744 373.645 99.9015 374.184 100.869C374.526 101.517 375.056 102 375.56 102.512C375.962 102.928 376.432 103.304 376.925 103.606C377.819 104.185 378.95 104.325 379.875 104.815C380.696 105.226 381.464 105.729 382.223 106.241C383.383 107.002 384.612 107.692 385.811 108.391L390.703 111.201C390.758 111.232 390.778 111.304 390.745 111.359C390.716 111.408 390.661 111.428 390.61 111.413C389.671 111.221 388.757 110.961 387.858 110.667C386.982 110.382 386.048 110.04 385.198 109.695C384.324 109.336 383.463 108.954 382.616 108.54C382.183 108.337 381.748 108.119 381.378 107.803C380.63 107.182 380.062 106.352 379.263 105.787C378.236 105.013 377.177 104.238 376.064 103.598C375.531 103.315 374.957 103.112 374.406 102.863C373.967 102.639 373.514 102.456 373.042 102.305C371.986 101.96 371.402 100.905 371.444 99.7902H371.449Z" fill="#F4CC67"/>
<path d="M374.766 99.1027C375.205 99.0381 375.638 98.9447 376.075 99.0359L376.144 99.0871C376.627 99.2139 377.06 99.4253 377.391 99.7947C377.712 100.146 377.941 100.627 378.274 100.976C379.13 101.804 380 102.665 381.098 103.164C381.972 103.586 382.964 103.711 383.849 104.101C384.868 104.537 386.006 105.215 386.962 105.787C389.838 107.452 392.924 108.903 395.944 110.282C396.001 110.309 396.026 110.378 395.999 110.436C395.975 110.485 395.921 110.511 395.87 110.5C394.903 110.376 393.949 110.18 393.004 109.944C390.663 109.336 388.331 108.531 386.183 107.412C385.334 106.902 384.672 106.092 383.896 105.5C383.128 104.935 382.287 104.412 381.475 103.918C380.854 103.546 380.246 103.155 379.58 102.861C378.897 102.576 378.189 102.323 377.519 102.004C377.071 101.793 376.534 101.691 376.104 101.444C375.669 101.179 375.347 100.792 375.112 100.331L375.181 100.382C374.979 99.9928 374.73 99.5566 374.768 99.1005L374.766 99.1027Z" fill="#F4CC67"/>
<path d="M377.497 97.9522C378.214 97.7876 379.035 97.9033 379.651 98.2549C380.224 98.5352 380.521 99.2095 380.976 99.6745C381.919 100.538 382.893 101.408 384.093 101.886C384.695 102.129 385.353 102.254 385.972 102.432C386.594 102.601 387.164 102.87 387.739 103.146C388.839 103.684 389.982 104.405 391.073 104.973L391 104.944C391.715 105.233 392.294 105.64 392.957 105.925C394.279 106.475 395.615 107.185 396.926 107.745C397.583 108.037 398.255 108.284 398.945 108.5C399.007 108.52 399.041 108.584 399.021 108.644C399.005 108.698 398.954 108.729 398.903 108.727C398.53 108.729 398.158 108.711 397.787 108.667C396.696 108.549 395.597 108.264 394.543 107.957C393.705 107.699 392.724 107.449 391.912 107.156C391.428 106.971 390.911 106.722 390.457 106.577C389.833 106.312 389.203 106.059 388.653 105.651C388.12 105.26 387.641 104.764 387.131 104.347C386.625 103.92 386.063 103.607 385.522 103.259C384.701 102.761 383.856 102.28 383.006 101.837C382.423 101.546 381.786 101.348 381.167 101.13C380.539 100.881 379.922 100.64 379.265 100.464C378.218 100.126 377.521 99.0448 377.495 97.9522H377.497Z" fill="#F4CC67"/>
<path d="M380.12 96.5926C381.058 96.4146 382.023 96.5926 382.687 97.2224C382.979 97.505 383.197 97.9055 383.488 98.2014C383.665 98.3928 384.213 98.8312 384.422 99.007C385.265 99.7124 386.225 100.289 387.299 100.556C388.114 100.756 388.941 100.901 389.698 101.261C390.186 101.468 390.705 101.728 391.169 101.989C391.406 102.125 391.644 102.269 391.879 102.407L391.67 102.329C392.103 102.467 392.511 102.636 392.924 102.776L393.081 102.83L393.097 102.839C394.956 103.916 396.931 104.781 398.941 105.545C399.62 105.801 400.301 106.054 400.991 106.295L400.951 106.29C401.18 106.323 401.317 106.444 401.499 106.557C401.552 106.593 401.566 106.666 401.528 106.717C401.499 106.76 401.448 106.777 401.402 106.762C401.275 106.726 401.146 106.686 401.022 106.673C400.989 106.668 400.949 106.673 400.953 106.68L400.902 106.673C398.313 106.49 395.755 105.896 393.359 104.899C393.061 104.779 392.633 104.577 392.336 104.441L392.498 104.499C392.061 104.396 391.646 104.232 391.251 104.027L391.1 103.971C390.448 103.444 389.866 102.785 389.156 102.325C387.998 101.577 386.787 100.927 385.549 100.324C384.794 99.9794 383.933 99.7947 383.15 99.4854C382.622 99.2517 382.012 99.185 381.495 98.938C380.643 98.4707 380.133 97.6029 380.117 96.5859L380.12 96.5926Z" fill="#F4CC67"/>
<path d="M382.793 95.3999C383.751 95.1173 384.832 95.2508 385.455 96.0363C385.646 96.2655 385.817 96.5259 386.021 96.7373C386.361 97.0532 386.725 97.3314 387.086 97.6207C387.621 98.0568 388.22 98.4039 388.866 98.6509C389.513 98.8957 390.243 98.9669 390.922 99.1249C392.475 99.5277 393.838 100.4 395.264 101.105C397.716 102.349 400.248 103.362 402.852 104.29C402.912 104.312 402.943 104.376 402.923 104.439C402.906 104.488 402.861 104.517 402.813 104.517C401.865 104.503 400.929 104.403 400.004 104.245C398.158 103.94 396.343 103.422 394.608 102.723C393.942 102.478 393.316 102.149 392.784 101.666C392.245 101.205 391.714 100.705 391.091 100.36C390.297 99.8904 389.487 99.4498 388.653 99.0537C388.242 98.8379 387.816 98.6487 387.375 98.5085C386.924 98.3683 386.454 98.2571 385.997 98.1147C385.54 97.9478 385.074 97.8209 384.592 97.7275C383.505 97.505 382.831 96.5081 382.793 95.3999Z" fill="#F4CC67"/>
<path d="M385.691 94.0269C386.629 93.6665 387.699 93.7466 388.273 94.601C388.626 95.1551 389.15 95.5267 389.653 95.9273C390.053 96.2544 390.512 96.5303 390.987 96.735C391.857 97.1311 392.875 97.0666 393.771 97.3892C394.95 97.7831 396.006 98.4351 397.115 98.978C399.356 100.091 401.643 101.054 403.986 101.971C404.046 101.993 404.075 102.062 404.053 102.122C404.033 102.173 403.982 102.2 403.931 102.196C401.375 102.136 398.866 101.501 396.485 100.609C396.083 100.462 395.691 100.304 395.338 100.055C394.639 99.5655 394.044 98.8356 393.29 98.4306C392.97 98.2415 392.516 97.9834 392.194 97.812C391.346 97.3915 390.514 96.9153 389.582 96.7017C389.052 96.5904 388.517 96.4391 387.996 96.2922C387.575 96.1965 387.084 96.1899 386.707 95.9651C386.048 95.5512 385.706 94.8525 385.691 94.0292V94.0269Z" fill="#F4CC67"/>
<path d="M388.868 93.0701C389.52 92.7141 390.199 92.6006 390.814 92.95C391.129 93.1502 391.309 93.5641 391.564 93.8311C391.695 93.9669 391.841 94.0759 391.981 94.1961C392.667 94.7924 393.441 95.3398 394.371 95.4444C394.493 95.4622 394.621 95.4778 394.745 95.4867C394.768 95.4622 394.726 95.4311 394.71 95.4088C394.697 95.391 394.708 95.3754 394.772 95.3576C394.834 95.3398 394.952 95.3309 395.074 95.3421C396.108 95.5156 397.049 95.9985 397.969 96.4791C398.948 96.9531 399.971 97.3626 400.936 97.8388C402.251 98.4707 403.541 99.1004 404.912 99.5967C404.972 99.6189 405.003 99.6857 404.98 99.7458C404.963 99.7947 404.916 99.8236 404.865 99.8236C403.924 99.8882 402.984 99.7569 402.069 99.5878C400.829 99.3297 399.591 98.9603 398.395 98.5842C398.04 98.4841 397.656 98.3617 397.352 98.1458C397.026 97.93 396.742 97.634 396.458 97.3603C396.177 97.08 395.89 96.833 395.58 96.6371C395.347 96.5036 395.145 96.3078 394.892 96.2121C394.71 96.181 394.535 96.1921 394.364 96.0853C393.785 95.8205 393.215 95.5067 392.589 95.3599C392.223 95.2731 391.832 95.2263 391.46 95.144C391.082 95.0417 390.699 94.9816 390.306 94.9615C389.354 94.9015 388.886 93.9914 388.866 93.0746L388.868 93.0701Z" fill="#F4CC67"/>
<path d="M391.848 91.7283C392.622 91.241 393.458 91.0941 393.871 91.8151C394.038 92.1088 394.246 92.3469 394.512 92.5383C394.978 92.9388 395.478 93.306 396.088 93.4328C396.711 93.5752 397.386 93.3772 398.005 93.5574C398.908 93.7799 399.673 94.3095 400.476 94.7501C401.131 95.1173 401.799 95.4644 402.473 95.7804C403.152 96.1209 403.889 96.3211 404.585 96.646C404.876 96.7773 405.16 96.9264 405.422 97.1089C405.475 97.1445 405.488 97.2179 405.451 97.2713C405.422 97.3136 405.373 97.3292 405.324 97.3203C404.23 97.209 403.15 97.298 402.072 97.0599C401.304 96.8975 400.541 96.6572 399.822 96.3701C399.529 96.2611 399.243 96.1431 398.999 95.9362C398.519 95.5379 398.129 94.9037 397.568 94.6144C397.039 94.3006 396.478 94.0603 395.903 93.8467C395.471 93.6531 394.996 93.5619 394.523 93.5441C394.191 93.5285 393.873 93.4706 393.543 93.4328C393.221 93.4106 392.831 93.4884 392.538 93.3416C392.036 93.0657 391.821 92.5093 391.848 91.7238V91.7283Z" fill="#F4CC67"/>
<path d="M24.5101 79.9501C25.811 84.7076 28.0726 89.6344 32.3237 92.3967C30.4131 90.8572 29.0387 88.7801 28.059 86.561C27.0847 84.3473 26.4832 81.9863 26.1212 79.6116C25.8981 78.4816 24.2651 78.8228 24.5128 79.9501H24.5101Z" fill="black"/>
<path d="M36.2945 28.4141C32.5932 22.6221 28.2251 17.2586 23.3046 12.4656C21.8839 11.0817 20.1966 9.65961 18.218 9.73877C16.1278 9.82339 14.4051 11.7286 14.0731 13.7976C13.7438 15.8693 14.5793 17.9901 15.8693 19.6415C17.1593 21.2928 18.8684 22.5538 20.5558 23.7958C25.2967 27.2786 30.6936 30.9444 36.2973 28.4141H36.2945Z" fill="white"/>
<path d="M39.6146 29.0528C37.6687 24.9094 34.6233 21.3692 32.6312 17.2504C30.639 13.1316 29.8633 7.90999 32.4896 4.1651C34.9771 0.616726 40.0882 -0.524212 44.1161 1.05072C48.144 2.62292 51.0207 6.49064 52.0766 10.6968C53.1326 14.9003 52.5447 19.3876 51.1459 23.4901C50.0491 26.7109 48.0923 30.0709 44.8128 30.9471" fill="white"/>
<path d="M32.5251 30.7533C26.2982 28.8181 20.0658 25.8866 15.4637 21.1482C14.1329 19.6497 13.0497 17.6653 12.8918 15.6318C12.7041 13.4973 13.9614 11.4065 15.7957 10.3748C18.1771 8.94722 21.5192 9.40851 23.3263 11.5321C24.834 13.2189 26.7663 15.8338 28.2006 17.6216C31.4093 21.6913 34.6969 25.7064 38.3465 29.3913C32.9687 24.2789 28.3203 18.3149 23.5249 12.6648C23.1358 12.2226 22.7411 11.7832 22.2975 11.4011C21.5382 10.8306 20.6292 10.443 19.6876 10.3311C16.6911 9.88617 13.5178 12.4137 13.8634 15.5554C14.0539 17.335 15.0772 19.0765 16.2856 20.373C18.9772 23.0534 22.3465 25.0213 25.7838 26.6045C28.1108 27.6471 30.5248 28.4933 32.9823 29.1729C34.0247 29.4977 33.6028 31.0372 32.5251 30.7561V30.7533Z" fill="black"/>
<path d="M47.412 30.7042C51.9815 24.5109 53.315 16.1122 51.0153 8.76707C50.5935 7.32316 49.9104 5.93383 48.947 4.77379C47.0528 2.41003 44.1216 0.916984 41.0926 0.835099C31.4174 0.684976 26.5649 11.9661 33.1157 19.071C35.6957 22.0735 37.5518 25.6873 38.4962 29.5332C37.6688 26.4925 36.2945 23.5911 34.4111 21.0663C33.7144 20.1055 32.9007 19.2484 32.1468 18.334C30.9031 16.7646 30.0648 14.8757 29.7763 12.8804C28.5299 3.95493 37.7532 -2.73784 45.8634 1.11078C48.272 2.27082 50.2751 4.27975 51.4181 6.70356C52.3407 8.73159 52.8633 10.937 53.1844 13.137C54.0852 19.5514 52.4986 26.3097 48.7483 31.6622C48.487 32.0335 47.9754 32.1235 47.6025 31.8642C47.2269 31.5995 47.1398 31.0754 47.412 30.7015V30.7042Z" fill="black"/>
<path d="M37.9883 83.0511C55.6053 81.0318 68.5235 67.4318 66.8419 52.6748C65.1602 37.9178 49.5155 27.5918 31.8985 29.6111C14.2814 31.6305 1.36325 45.2304 3.04489 59.9874C4.72654 74.7445 20.3712 85.0704 37.9883 83.0511Z" fill="#F4CC67"/>
<path d="M27.1935 83.5967C22.439 82.7861 17.9729 81.0665 14.0838 78.5007C7.27723 74.0052 3.06426 67.4653 2.22331 60.082C1.38235 52.6986 4.01409 45.3726 9.63681 39.4577C15.2187 33.5811 23.0922 29.7953 31.8011 28.799C40.5128 27.8 49.0313 29.7079 55.7916 34.1707C62.5982 38.6634 66.8084 45.2034 67.6494 52.5894C68.4904 59.9728 65.8586 67.2988 60.2359 73.2136C54.654 79.0903 46.7805 82.8761 38.0716 83.8724C34.3703 84.2955 30.7016 84.1945 27.1881 83.5967H27.1935ZM42.3607 30.6987C39.0541 30.1364 35.5623 30.0245 31.9889 30.434C23.661 31.3893 16.144 34.995 10.8261 40.5932C5.54632 46.1505 3.07243 53.0043 3.85624 59.8936C5.48372 74.1744 20.7489 84.1972 37.8865 82.2347C55.0241 80.2722 67.644 67.0559 66.0192 52.775C64.7319 41.4721 54.9017 32.8387 42.3607 30.7014V30.6987Z" fill="black"/>
<path d="M32.6313 79.1094C27.8305 77.3871 23.6583 74.0516 20.7054 69.8973C13.7083 60.1611 14.0186 46.4862 21.462 37.1131C23.2392 34.864 25.3919 32.8987 27.8114 31.3647C28.2577 31.1054 28.9789 30.6469 29.4498 30.4258C29.7301 30.2811 30.0104 30.1392 30.2935 30C30.3343 29.9809 30.3833 29.9972 30.4023 30.0382C30.4214 30.0764 30.4078 30.1201 30.3751 30.1419C30.0921 30.322 29.4852 30.7424 29.2184 30.9144C28.0318 31.7605 26.8834 32.7104 25.8301 33.7176C25.4736 34.0915 25.0463 34.4982 24.7034 34.8803C15.0936 45.2361 14.8051 61.4358 24.023 72.1382C25.4273 73.7677 27.033 75.2608 28.7639 76.5382C30.0104 77.4499 31.3304 78.2578 32.7048 78.9593C32.7456 78.9811 32.7619 79.0302 32.7401 79.0685C32.7184 79.1094 32.6721 79.1258 32.6313 79.1067V79.1094Z" fill="black"/>
<path d="M19.0016 75.3045C18.509 74.9687 18.0083 74.6002 17.5293 74.24C17.1809 73.937 16.7427 73.5685 16.4025 73.2601C16.0868 72.9926 15.3003 72.1492 14.9928 71.8407C14.7369 71.5732 14.3723 71.1065 14.13 70.8171C13.8824 70.5278 13.534 70.0693 13.3163 69.7499C11.9882 67.932 10.9404 65.9122 10.1239 63.8132C9.97151 63.4529 9.81638 62.9043 9.68031 62.5303C9.40271 61.7906 9.16593 60.6825 8.95909 59.91C8.83118 59.1403 8.58896 57.9993 8.52637 57.2269C7.69085 50.1602 9.58505 42.5066 14.2171 37.0803C14.2443 37.0421 14.3015 37.0285 14.3396 37.0612C14.3695 37.0885 14.3777 37.1322 14.3559 37.165C12.5978 40.1292 11.3377 43.3855 10.6165 46.7565C10.4369 47.5808 10.2981 48.4733 10.1974 49.3058C10.1675 49.5542 10.0885 50.0319 10.0777 50.2666C10.0668 50.4495 9.97423 51.6614 9.96063 51.877C9.92525 52.5294 9.9443 53.3182 9.92797 53.976C9.94702 54.2845 9.99873 55.4172 10.0178 55.7502C10.0695 56.3671 10.1647 57.0549 10.2246 57.6745C10.2845 58.0949 10.4723 59.1485 10.5458 59.5852C10.6573 60.0301 10.8751 61.0428 10.9894 61.4713C11.7759 64.3728 13.0142 67.1705 14.609 69.7144C14.9492 70.2003 15.3547 70.8363 15.7085 71.3085L16.4951 72.332L16.691 72.5886L16.9033 72.8315C17.1591 73.1209 17.6027 73.634 17.8586 73.9261L17.9729 74.0407L18.2015 74.27L19.1132 75.1871C19.1459 75.2198 19.1459 75.2717 19.1132 75.3045C19.0833 75.3345 19.0343 75.3372 19.0016 75.3099V75.3045Z" fill="black"/>
<path d="M63.5155 25.1878C64.6548 25.1878 65.5784 24.2615 65.5784 23.1188C65.5784 21.9762 64.6548 21.0499 63.5155 21.0499C62.3761 21.0499 61.4525 21.9762 61.4525 23.1188C61.4525 24.2615 62.3761 25.1878 63.5155 25.1878Z" fill="black"/>
<path d="M78.0405 51.11C79.1798 51.11 80.1034 50.1837 80.1034 49.041C80.1034 47.8984 79.1798 46.9721 78.0405 46.9721C76.9012 46.9721 75.9775 47.8984 75.9775 49.041C75.9775 50.1837 76.9012 51.11 78.0405 51.11Z" fill="black"/>
<path d="M51.3175 36.5481C51.2603 36.5372 51.2032 36.5208 51.146 36.4935C50.8412 36.3406 50.716 35.9722 50.8684 35.6665C51.0453 35.3116 55.2283 26.9402 60.3966 24.2216C60.6987 24.0633 61.0715 24.1807 61.2294 24.4809C61.3872 24.7811 61.2702 25.1578 60.9708 25.3161C56.1591 27.8464 52.0169 36.1332 51.9761 36.2151C51.8536 36.4662 51.5815 36.5945 51.3202 36.5508L51.3175 36.5481Z" fill="black"/>
<path d="M21.7015 59.2522C21.2606 60.3112 20.4714 60.9909 19.5134 60.5787C19.1215 60.3986 18.7296 60.303 18.3104 60.2785C17.5266 60.1693 16.751 60.0874 15.9754 60.2894C15.5807 60.3767 15.2024 60.5623 14.8296 60.7343C13.3491 61.4713 11.6998 61.1383 10.1404 60.9308C7.82703 60.5978 5.462 60.1202 3.24938 59.3777C3.17862 59.3532 3.1378 59.2767 3.16229 59.203C3.18134 59.143 3.23305 59.113 3.29293 59.1075C4.2618 58.9656 5.23884 58.9301 6.21043 58.8837C7.53855 58.8482 8.87483 58.8346 10.2002 58.87C10.584 58.87 10.9623 58.8755 11.3351 58.9956C11.7134 59.1021 12.0944 59.2958 12.4782 59.4569C13.2456 59.8008 14.0186 59.8035 14.7915 59.8226C15.5671 59.7899 16.3428 59.7817 17.0857 59.5142C17.6437 59.2767 18.1934 59.0092 18.7513 58.7636C19.1024 58.5807 19.4453 58.2477 19.84 58.1904C20.5285 58.1222 21.1354 58.4879 21.6988 59.2494L21.7015 59.2522Z" fill="#F4CC67"/>
<path d="M24.2407 61.5723C23.8026 62.7023 22.9562 63.4038 21.9056 63.0626C21.4675 62.9043 21.032 62.8306 20.5748 62.8306C19.7121 62.7596 18.8575 62.7105 18.0138 62.9398C17.1593 63.1445 16.3646 63.704 15.4937 63.8214C14.2499 64.0316 12.8674 63.8214 11.6236 63.674C9.08986 63.3492 6.49894 62.8524 4.06588 62.1018C3.99239 62.08 3.95429 62.0035 3.97606 61.9298C3.99512 61.8698 4.04683 61.8343 4.1067 61.8316C4.96399 61.7197 5.81311 61.676 6.66768 61.6432C7.48414 61.6105 8.36865 61.5914 9.18239 61.5968C10.0152 61.5886 10.8453 61.5968 11.6753 61.6132C12.0945 61.6105 12.5081 61.6132 12.9191 61.7333C13.7355 61.9517 14.5792 62.4403 15.442 62.4703C16.2856 62.5385 17.132 62.5139 17.9703 62.402C18.3894 62.3556 18.8058 62.2792 19.214 62.1236C19.6195 61.9626 20.0169 61.7442 20.4142 61.5668C20.6129 61.474 20.8116 61.3948 21.0075 61.2911C21.3831 61.0864 21.7451 60.7343 22.1669 60.6497C22.899 60.5405 23.5712 60.838 24.2407 61.5695V61.5723Z" fill="#F4CC67"/>
<path d="M26.3717 64.0179C26.0696 64.8804 25.5062 65.5355 24.6489 65.7075C24.1781 65.7893 23.6637 65.5655 23.1983 65.5164C22.9616 65.4918 22.7302 65.5082 22.4989 65.5055C21.579 65.4809 20.651 65.4645 19.7583 65.7238C18.8683 65.9531 17.992 66.54 17.0667 66.6737C15.7331 66.9085 14.2444 66.7092 12.9054 66.5563C10.1893 66.2206 7.40789 65.6638 4.8197 64.804C4.74894 64.7794 4.70811 64.703 4.73261 64.632C4.74894 64.5774 4.79792 64.5447 4.84963 64.5392C5.32046 64.4928 5.78585 64.4764 6.24851 64.4683C7.58751 64.43 8.95918 64.4382 10.2955 64.4546C11.4059 64.4628 12.5162 64.4819 13.6239 64.5092C14.3234 64.5556 14.9629 64.8204 15.6324 65.0551C16.2856 65.2926 16.9959 65.3417 17.6709 65.339C18.7949 65.3226 19.957 65.2462 21.0211 64.8613C21.6579 64.572 22.2866 64.2526 22.9126 63.9415C23.3099 63.7176 23.6828 63.3437 24.1237 63.2345C24.9565 63.0735 25.7103 63.3956 26.3689 64.0152L26.3717 64.0179Z" fill="#F4CC67"/>
<path d="M28.4019 66.4554C28.1107 67.3397 27.5419 68.0112 26.6764 68.205C26.1974 68.3033 25.664 68.0931 25.1877 68.0603C24.9428 68.044 24.7087 68.0658 24.4693 68.0713C23.5276 68.0713 22.5751 68.0822 21.6661 68.3633C20.7571 68.6144 19.8698 69.2204 18.9227 69.3732C17.5565 69.6353 16.0297 69.4578 14.6526 69.3241C11.863 69.0239 9.0054 68.4861 6.34372 67.64C6.27296 67.6181 6.23214 67.5417 6.25391 67.468C6.27024 67.4134 6.31923 67.378 6.37094 67.3725C6.85265 67.3234 7.32892 67.307 7.80247 67.2933C10.3199 67.2196 12.8428 67.2524 15.3602 67.266C16.5305 67.3234 17.6409 68.0276 18.8248 68.0248C20.0903 68.0494 21.3966 67.9566 22.6132 67.5936C23.1792 67.4107 23.6963 67.0832 24.2298 66.8239C24.442 66.7147 24.6543 66.6191 24.8612 66.4963C25.2639 66.2588 25.6368 65.874 26.0859 65.7512C26.9268 65.5656 27.7079 65.8522 28.3992 66.4554H28.4019Z" fill="#F4CC67"/>
<path d="M30.6555 68.8901C30.3616 69.7854 29.7874 70.465 28.9138 70.6834C28.4266 70.7926 27.8796 70.5988 27.3924 70.5797C27.142 70.5715 26.9025 70.6015 26.6603 70.6124C25.7078 70.6452 24.709 70.6889 23.8 71.0028C22.8774 71.2866 21.9874 71.9253 21.024 72.1109C19.6305 72.4194 18.0575 72.2938 16.6423 72.1956C13.771 71.9635 10.8127 71.4477 8.10205 70.506C8.03129 70.4814 7.99319 70.405 8.01768 70.3313C8.03673 70.2767 8.083 70.244 8.13743 70.2385C8.63275 70.203 9.11991 70.1975 9.60163 70.1975C10.2875 70.1757 11.044 70.1975 11.7299 70.1757C12.6552 70.1921 13.6105 70.1648 14.5304 70.1593C15.4584 70.1566 16.3892 70.1293 17.3172 70.1184C18.0493 70.1375 18.7324 70.3695 19.4455 70.5715C20.1449 70.7735 20.8906 70.7844 21.5982 70.7434C22.3113 70.7162 23.0162 70.6042 23.7156 70.4705C24.1837 70.3804 24.6491 70.2549 25.0873 70.0611C25.5281 69.8536 25.9554 69.5943 26.3882 69.3705C26.8345 69.1549 27.2536 68.8928 27.6455 68.5844C28.56 67.8474 29.7792 68.1559 30.6583 68.8901H30.6555Z" fill="#F4CC67"/>
<path d="M33.5974 71.1911C33.3334 72.13 32.7456 72.8342 31.861 73.1045C31.2269 73.2628 30.5329 73.0007 29.8906 73.1045L29.5124 73.1399C29.2511 73.1645 28.6278 73.2191 28.3775 73.2382C27.7542 73.3092 27.1446 73.432 26.5459 73.634C25.5743 73.9588 24.6762 74.6084 23.6665 74.8104C22.6676 75.0342 21.6498 75.0752 20.6319 75.0315C17.1102 74.9114 13.5695 74.4146 10.1975 73.4211C10.124 73.3992 10.0832 73.3228 10.105 73.2518C10.124 73.1891 10.1785 73.1536 10.241 73.1536C12.1951 73.0144 14.2063 73.0226 16.1577 72.968L19.0643 72.897C19.5515 72.8779 20.0332 72.8561 20.5203 72.9434C21.0184 73.0226 21.5164 73.1836 22.009 73.2983C22.7602 73.503 23.495 73.4866 24.2489 73.4375C24.9891 73.3883 25.724 73.271 26.4452 73.1072C26.9296 73.0089 27.4059 72.8724 27.8631 72.6541C28.5408 72.3102 29.1939 71.9144 29.8525 71.5377C30.2662 71.2675 30.6445 70.8471 31.1153 70.6916C31.9754 70.4323 32.819 70.6452 33.6001 71.1911H33.5974Z" fill="#F4CC67"/>
<path d="M37.2606 73.0062C37.0511 73.9643 36.504 74.7231 35.625 75.0451C35.1242 75.2198 34.5309 75.097 34.0138 75.1325C33.7498 75.1516 33.5022 75.2116 33.2463 75.2499C32.8 75.3181 32.1604 75.3918 31.7277 75.4901C30.7289 75.6784 29.79 76.0714 28.8592 76.631C28.3884 76.8848 27.9067 77.1087 27.4059 77.2479C26.9051 77.3707 26.3962 77.4744 25.8845 77.5372C24.9892 77.6355 23.7046 77.6136 22.7929 77.6109C19.7611 77.5508 16.6313 77.2069 13.6947 76.5027C13.6212 76.4863 13.575 76.4126 13.594 76.3389C13.6076 76.2816 13.6539 76.2434 13.7083 76.2352C14.2254 76.1615 14.7343 76.1151 15.2433 76.0769C15.9645 76.0059 16.7673 75.9677 17.4886 75.9022C18.2152 75.8749 18.9936 75.7958 19.7121 75.763C20.9395 75.6729 22.1642 75.5938 23.3889 75.501C24.1564 75.4737 24.8912 75.6647 25.6559 75.8203C26.6575 76.0278 27.6862 75.8886 28.6769 75.7384C29.9097 75.4901 31.1725 75.2089 32.2121 74.4556C32.8381 74.0461 33.562 73.634 34.0982 73.1099C34.9555 72.2747 36.2509 72.3975 37.2579 73.0062H37.2606Z" fill="#F4CC67"/>
<path d="M43.0057 73.664C42.9703 74.8295 42.2736 75.935 41.0761 75.9705L40.6924 76.0005C40.442 76.0141 40.2025 76.0578 39.9684 76.1315C39.6309 76.2243 39.269 76.3253 38.9342 76.4127C38.4961 76.5191 38.0116 76.6774 37.6007 76.863C36.9284 77.1387 36.3406 77.5645 35.7663 78.0121C35.1758 78.4762 34.5335 78.7955 33.8286 79.003C32.691 79.366 31.5098 79.426 30.3314 79.5707C27.5309 79.8764 24.6679 80.0047 21.881 79.6116C21.8075 79.6007 21.7531 79.5325 21.764 79.4561C21.7721 79.3933 21.8211 79.3496 21.881 79.3387C23.6908 78.8938 25.4571 78.5362 27.2588 78.1268C28.146 77.933 29.0305 77.7337 29.9205 77.5481C30.3722 77.4471 30.8131 77.3516 31.2839 77.3598C31.9997 77.368 32.7155 77.5618 33.434 77.5318C34.3566 77.4799 35.2629 77.226 36.1338 76.9203C36.7815 76.672 37.4401 76.4263 38.0007 76.0032C38.3382 75.7576 38.7655 75.3454 39.0866 75.0697C39.2663 74.9169 39.4486 74.7722 39.6173 74.603C39.9385 74.2782 40.2079 73.806 40.6053 73.5794C41.3673 73.1809 42.1838 73.271 43.0084 73.664H43.0057Z" fill="#F4CC67"/>
<path d="M50.6505 72.2174C50.675 73.3501 50.3484 74.4446 49.2108 74.7285L48.7835 74.8459C48.3181 74.9714 47.6976 75.2608 47.2404 75.4382C46.3912 75.7575 45.5802 76.1943 44.9379 76.8466C44.4834 77.3161 44.0806 77.9029 43.6098 78.3178C43.188 78.6918 42.709 79.0521 42.1919 79.265C41.5687 79.5379 41.1495 79.598 40.695 79.8218C39.9276 80.0374 39.1574 80.2503 38.3817 80.4469C36.8304 80.8508 35.2519 81.1784 33.6625 81.3776C32.8896 81.4704 32.0487 81.5332 31.2703 81.5523C31.1941 81.5523 31.1315 81.495 31.1288 81.4213C31.1288 81.3558 31.1696 81.3039 31.2268 81.2848C32.1439 80.8781 33.0502 80.5233 33.9592 80.1521C35.2138 79.6389 36.4657 79.1258 37.7285 78.629C38.4579 78.3615 39.1628 77.9957 39.9357 77.8675L39.8241 77.9193C40.1126 77.8211 40.4093 77.7747 40.6923 77.7583C41.2257 77.7146 41.7456 77.7719 42.2327 77.5618C43.4111 77.0377 44.527 76.3963 45.5911 75.6784C46.0184 75.3672 46.3749 74.9769 46.7178 74.5757C46.9709 74.27 47.2404 73.997 47.488 73.694C47.703 73.3829 47.8309 72.9871 48.0596 72.6923C48.6529 71.9772 49.7524 71.8189 50.6505 72.2228V72.2174Z" fill="#F4CC67"/>
<path d="M58.0641 69.6544C58.3852 70.5114 58.3063 71.7807 57.264 72.0181C56.8585 72.1218 56.4992 72.2829 56.1672 72.5204C55.5086 72.9134 54.869 73.3174 54.4009 73.937C54.1641 74.2372 53.9845 74.6057 53.7967 74.9715C53.2878 76.066 52.3107 76.7675 51.2874 77.327C48.9687 78.6481 46.4975 79.7208 43.9637 80.5178C43.8903 80.5397 43.8141 80.5015 43.7923 80.4278C43.7732 80.3677 43.795 80.3131 43.8413 80.2749C44.3938 79.7235 44.9789 79.2432 45.564 78.7791C46.8758 77.7583 48.2039 76.8112 49.562 75.8695C50.0573 75.561 50.6533 75.4764 51.2167 75.34C52.0168 75.1707 52.6128 74.7149 53.2116 74.2727C53.941 73.6777 54.6703 73.0362 55.0323 72.1355C55.1711 71.8243 55.4079 71.3849 55.5494 71.0764C55.6964 70.7243 55.7399 70.2576 56.0012 69.9737C56.4638 69.4988 57.1714 69.4142 58.0641 69.6489V69.6544Z" fill="#F4CC67"/>
<path d="M66.5255 49.3358C66.3268 49.3031 66.1499 49.1721 66.0628 48.9728C65.9267 48.6589 66.0683 48.2959 66.3812 48.1594C66.5826 48.0721 71.3562 46.0195 75.3596 47.6599C75.6753 47.7882 75.825 48.1512 75.6971 48.4651C75.5692 48.7817 75.2072 48.9319 74.8943 48.8036C71.378 47.3624 66.9174 49.2703 66.8738 49.2922C66.7595 49.3413 66.6398 49.3549 66.5255 49.3358Z" fill="black"/>
<path d="M51.2494 79.6307C49.9485 84.3883 47.6869 89.3151 43.4358 92.0773C45.3463 90.5379 46.7207 88.4607 47.7005 86.2416C48.6748 84.028 49.2762 81.667 49.6382 79.2923C49.8614 78.1623 51.4943 78.5034 51.2466 79.6307H51.2494Z" fill="black"/>
<path d="M45.1559 77.5318C58.0537 77.5318 68.5095 67.0454 68.5095 54.1098C68.5095 41.1742 58.0537 30.6878 45.1559 30.6878C32.258 30.6878 21.8022 41.1742 21.8022 54.1098C21.8022 67.0454 32.258 77.5318 45.1559 77.5318Z" fill="black"/>
<path d="M40.973 81.3722C40.0939 84.896 38.4092 88.1823 36.134 90.9637C37.9058 87.9503 39.0407 84.5521 39.3536 81.0938C39.5169 79.9228 41.207 80.2094 40.973 81.3722Z" fill="black"/>
<path d="M47.1946 54.3254C46.6666 54.3636 46.1359 54.3418 45.608 54.2544C44.3452 54.0442 43.1749 53.482 42.2251 52.6276C41.972 52.3983 41.9502 52.008 42.1788 51.7542C42.4074 51.5003 42.7966 51.4785 43.0497 51.7078C43.8253 52.4038 44.7779 52.8651 45.8093 53.0371C47.0613 53.2445 48.3023 53.0234 49.4045 52.3983C49.7012 52.2291 50.0767 52.3356 50.2455 52.6304C50.4142 52.9279 50.3081 53.3045 50.0141 53.4738C49.1487 53.9651 48.1825 54.2544 47.1973 54.3281L47.1946 54.3254Z" fill="white"/>
<path d="M38.891 43.1426C39.8484 43.1426 40.6246 42.3641 40.6246 41.4039C40.6246 40.4436 39.8484 39.6652 38.891 39.6652C37.9335 39.6652 37.1573 40.4436 37.1573 41.4039C37.1573 42.3641 37.9335 43.1426 38.891 43.1426Z" fill="white"/>
<path d="M57.2206 45.3344C58.178 45.3344 58.9542 44.5559 58.9542 43.5956C58.9542 42.6354 58.178 41.8569 57.2206 41.8569C56.2631 41.8569 55.4869 42.6354 55.4869 43.5956C55.4869 44.5559 56.2631 45.3344 57.2206 45.3344Z" fill="white"/>
<path d="M39.4487 48.5279C41.4463 48.5279 43.0657 46.9038 43.0657 44.9004C43.0657 42.897 41.4463 41.2729 39.4487 41.2729C37.4511 41.2729 35.8318 42.897 35.8318 44.9004C35.8318 46.9038 37.4511 48.5279 39.4487 48.5279Z" fill="black"/>
<path d="M55.6991 50.212C57.6967 50.212 59.316 48.5879 59.316 46.5845C59.316 44.5811 57.6967 42.957 55.6991 42.957C53.7015 42.957 52.0822 44.5811 52.0822 46.5845C52.0822 48.5879 53.7015 50.212 55.6991 50.212Z" fill="black"/>
<path d="M230.243 38.4075C226.92 36.4537 223.598 34.4974 220.274 32.5434C219.228 31.9285 218.158 31.292 217.411 30.3348C216.663 29.3777 216.301 28.0158 216.84 26.9251C217.298 25.9948 218.322 25.4414 219.35 25.3258C220.377 25.2101 221.409 25.469 222.383 25.8125C227.806 27.7262 232.149 32.4576 233.609 38.0376C234.805 28.9277 238.871 20.2144 245.08 13.4524C246.213 12.2189 247.487 11.003 249.095 10.5441C250.704 10.0851 252.712 10.6319 253.403 12.1573C254.17 13.8524 253.064 15.7711 251.972 17.2805C246.274 25.1458 239.688 32.3255 232.882 39.2521" fill="white"/>
<path d="M239.958 81.9555C223.464 78.4758 212.235 65.5221 214.877 53.0225C217.519 40.5229 233.032 33.2108 249.527 36.6904C266.021 40.17 277.25 53.1238 274.608 65.6233C271.966 78.1229 256.452 85.4351 239.958 81.9555Z" fill="#F4CC67"/>
<path d="M271.882 73.0171C273.497 70.8278 274.614 68.3746 275.174 65.7325C276.49 59.5035 274.539 52.9834 269.682 47.3787C264.864 41.8189 257.748 37.8153 249.649 36.1044C241.549 34.396 233.422 35.181 226.763 38.3205C220.049 41.4841 215.627 46.6587 214.311 52.8877C212.996 59.1167 214.946 65.6367 219.803 71.2415C224.622 76.8013 231.738 80.8049 239.837 82.5157C247.936 84.2242 256.063 83.4392 262.722 80.2997C266.587 78.4771 269.694 75.9904 271.885 73.0173L271.882 73.0171ZM218.534 46.2951C220.612 43.4769 223.567 41.1126 227.252 39.3758C233.683 36.3445 241.549 35.5892 249.403 37.2464C257.258 38.9035 264.146 42.7746 268.8 48.1446C273.415 53.4697 275.272 59.6289 274.034 65.4931C273.506 67.9899 272.444 70.273 270.953 72.2985C265.172 80.1402 252.914 84.0847 240.074 81.3756C232.22 79.7185 225.331 75.8473 220.677 70.4773C216.063 65.1522 214.205 58.993 215.444 53.1289C215.967 50.6559 217.016 48.3546 218.532 46.2973L218.534 46.2951Z" fill="black"/>
<path d="M231.931 76.2047C221.361 75.2451 213.581 65.8691 214.553 55.2628C215.526 44.6565 224.884 36.8362 235.454 37.7958C246.025 38.7554 253.805 48.1314 252.832 58.7377C251.859 69.344 242.502 77.1643 231.931 76.2047Z" fill="black"/>
<path d="M232.486 36.8141C233.012 32.083 234.097 27.3613 236.104 23.0319C238.835 17.3372 244.69 8.59042 252.027 11.3265C252.957 11.6756 253.962 12.1702 254.339 13.1496C254.562 13.68 254.575 14.3031 254.496 14.8741C254.386 15.6537 254.116 16.4018 253.78 17.1318C250.901 23.1069 242.86 30.5499 237.461 34.479C236.897 34.87 236.285 35.2882 235.68 35.571C235.383 35.7019 235.249 36.0518 235.381 36.3481C235.516 36.6446 235.868 36.7736 236.162 36.6327C237.528 35.9332 238.687 34.9742 239.879 34.0353C243.741 31.0016 262.359 14.0185 252.237 10.7599C244.508 8.03942 238.669 16.8994 235.893 22.9301C233.949 27.309 232.937 32.0592 232.489 36.8119L232.486 36.8141Z" fill="black"/>
<path d="M232.456 36.607C230.226 32.6747 222.983 21.0806 217.628 25.2427C211.756 30.1743 223.618 35.6005 227.329 37.1936C228.117 37.5276 228.899 37.8464 229.714 38.1464C230.017 38.2564 230.35 38.1021 230.46 37.7986C230.576 37.4884 230.407 37.1402 230.092 37.0411C226.832 35.9336 216 31.7963 216.715 27.592C216.852 26.8561 217.369 26.1911 217.975 25.6751C218.58 25.159 219.337 24.8463 220.135 24.8361C224.76 24.8428 230.222 32.9222 232.454 36.6067L232.456 36.607Z" fill="black"/>
<path d="M257.886 62.2339C259.496 58.9931 259.995 55.236 259.473 51.6631C258.288 43.2534 251.446 36.4317 243.066 35.3163C241.059 35.0442 239.001 35.1027 237.016 35.513C236.662 35.5999 236.07 35.721 235.722 35.8425C235.508 35.9057 235.296 35.9715 235.084 36.0397C235.054 36.0492 235.036 36.0816 235.046 36.114C235.055 36.1416 235.083 36.1587 235.112 36.1541C235.344 36.1071 235.86 36.0228 236.08 35.9795C237.099 35.8266 238.15 35.7471 239.179 35.7409C239.543 35.757 239.961 35.7511 240.324 35.7792C250.288 36.3267 258.353 44.445 258.877 54.442C258.957 55.9654 258.866 57.517 258.607 59.0193C258.416 60.0978 258.137 61.1609 257.778 62.195C257.768 62.2256 257.784 62.2587 257.815 62.2688C257.846 62.2788 257.879 62.2624 257.888 62.2341L257.886 62.2339Z" fill="black"/>
<path d="M267.713 64.2818C270.973 58.5846 270.076 51.0279 266.166 45.8798L265.782 45.3979C265.599 45.1772 265.384 44.9877 265.185 44.7801C264.626 44.2168 264.041 43.6608 263.424 43.1553C262.916 42.7473 262.343 42.3187 261.78 41.9906C261.447 41.7928 261.064 41.5952 260.707 41.4462C260.677 41.4289 260.635 41.4396 260.622 41.4725C260.61 41.4981 260.62 41.5281 260.642 41.5424C262.359 42.7283 263.699 44.3489 265.032 45.9397L265.028 45.932L265.371 46.4247C265.573 46.6957 265.822 47.1483 266.001 47.4415C266.496 48.3051 266.933 49.2097 267.291 50.141C269.057 54.6111 269.175 59.6918 267.602 64.2427C267.592 64.2733 267.609 64.3064 267.639 64.3164C267.67 64.3265 267.7 64.3099 267.713 64.2818Z" fill="black"/>
<path d="M209.285 42.4569C208.481 42.384 207.889 41.6711 207.963 40.8646C208.037 40.0582 208.749 39.4635 209.553 39.5365C210.356 39.6095 210.948 40.3224 210.874 41.1288C210.8 41.9353 210.088 42.5299 209.285 42.4569Z" fill="black"/>
<path d="M202.541 52.337C201.738 52.264 201.146 51.5511 201.22 50.7447C201.294 49.9382 202.006 49.3436 202.809 49.4166C203.613 49.4895 204.205 50.2024 204.131 51.0089C204.057 51.8153 203.345 52.4099 202.541 52.337Z" fill="black"/>
<path d="M222.212 41.84C222.237 41.8057 222.257 41.7687 222.271 41.7262C222.352 41.4977 222.234 41.2487 222.007 41.1672C221.744 41.0729 215.514 38.8632 211.548 40.0226C211.316 40.0892 211.183 40.3323 211.251 40.5647C211.317 40.7968 211.559 40.9306 211.79 40.8617C215.483 39.782 221.65 41.9689 221.711 41.9914C221.896 42.0569 222.099 41.9902 222.209 41.8397L222.212 41.84Z" fill="black"/>
<path d="M215.831 51.8623C215.855 51.8281 215.876 51.791 215.889 51.7485C215.971 51.52 215.853 51.271 215.626 51.1896C215.363 51.0952 209.133 48.8855 205.166 50.045C204.935 50.1115 204.801 50.3547 204.87 50.587C204.936 50.8191 205.178 50.953 205.409 50.884C209.102 49.8043 215.269 51.9912 215.33 52.0138C215.515 52.0792 215.717 52.0125 215.828 51.8621L215.831 51.8623Z" fill="black"/>
<path d="M229.372 77.9073C229.354 81.3989 228.715 85.1838 226.316 87.8591C227.337 86.4531 227.897 84.7792 228.16 83.0807C228.419 81.3868 228.398 79.6626 228.212 77.9743C228.155 77.1627 229.336 77.0902 229.372 77.9073Z" fill="black"/>
<path d="M230.77 62.7081C230.96 62.7253 231.15 62.7329 231.342 62.726C232.248 62.7013 233.124 62.4187 233.873 61.9106C234.072 61.7756 234.126 61.5034 233.992 61.3016C233.857 61.1023 233.586 61.0485 233.385 61.1833C232.776 61.5971 232.062 61.8288 231.321 61.8491C230.423 61.8744 229.574 61.6005 228.863 61.0547C228.671 60.9084 228.399 60.9444 228.253 61.1378C228.106 61.3311 228.142 61.6041 228.334 61.7504C229.04 62.2934 229.892 62.6234 230.773 62.7059L230.77 62.7081Z" fill="white"/>
<path d="M223.589 49.87C222.914 49.8087 222.417 49.2099 222.479 48.5326C222.541 47.8552 223.139 47.3558 223.814 47.417C224.489 47.4783 224.986 48.0771 224.924 48.7545C224.862 49.4318 224.264 49.9313 223.589 49.87Z" fill="white"/>
<path d="M241.253 50.5299C240.578 50.4687 240.081 49.8699 240.143 49.1925C240.205 48.5151 240.803 48.0157 241.478 48.077C242.153 48.1383 242.65 48.7371 242.588 49.4144C242.526 50.0918 241.928 50.5912 241.253 50.5299Z" fill="white"/>
<path d="M262.927 61.4912C263.392 61.8663 263.819 62.0363 264.176 61.8475C264.366 61.7287 264.451 61.4303 264.591 61.2583C264.664 61.1678 264.748 61.1025 264.828 61.0247C265.141 60.7203 265.463 60.4312 265.895 60.3173C266.313 60.1925 266.868 60.2963 267.273 60.1047C267.683 59.933 268.03 59.668 268.346 59.3614C268.797 58.9382 269.296 58.4587 269.741 58.0423C270.059 57.7431 270.834 57.0311 271.137 56.7282C271.292 56.5794 271.446 56.4282 271.598 56.2743C271.635 56.2364 271.636 56.1733 271.596 56.1357C271.567 56.1087 271.529 56.1028 271.494 56.1118C270.84 56.2468 270.239 56.4887 269.643 56.7578C268.968 57.073 268.323 57.4714 267.726 57.9056C267.459 58.1243 267.335 58.4508 267.173 58.7617C266.97 59.183 266.63 59.434 266.266 59.6803C265.897 59.8972 265.54 60.1247 265.103 60.1895C264.763 60.2194 264.414 60.2242 264.07 60.2537C263.847 60.2529 263.57 60.1597 263.363 60.2551C263.009 60.4417 262.891 60.8901 262.928 61.4888L262.927 61.4912Z" fill="#F4CC67"/>
<path d="M253.864 52.8085C254.372 53.1388 254.816 53.2593 255.164 53.0333C255.346 52.8919 255.408 52.5865 255.534 52.3988C255.601 52.3004 255.681 52.225 255.756 52.1395C256.049 51.8016 256.352 51.4793 256.781 51.3214C257.188 51.1567 257.755 51.2105 258.149 51.0034C258.549 50.8089 258.892 50.5338 259.202 50.217C259.66 49.7677 260.166 49.267 260.609 48.8092C261.216 48.1621 261.796 47.4906 262.357 46.8102C262.39 46.7695 262.386 46.7084 262.343 46.6729C262.309 46.6455 262.268 46.6466 262.233 46.6629C260.934 47.116 259.896 47.8211 258.812 48.5804C258.631 48.7049 258.459 48.8327 258.336 49.0183C258.202 49.2102 258.108 49.447 258.001 49.6585C257.801 50.0947 257.464 50.3654 257.109 50.649C256.749 50.8982 256.401 51.1629 255.964 51.274C255.619 51.3398 255.266 51.3831 254.919 51.4488C254.694 51.4721 254.402 51.4092 254.203 51.5247C253.86 51.7487 253.777 52.2028 253.862 52.8058L253.864 52.8085Z" fill="#F4CC67"/>
<path d="M253.481 59.8009C253.91 60.197 254.315 60.399 254.662 60.2312C254.847 60.124 254.929 59.8327 255.062 59.6747C255.429 59.3216 255.793 58.9368 256.307 58.8255C256.515 58.7739 256.744 58.7898 256.961 58.7949C257.826 58.8734 258.491 58.251 259.12 57.7565C260.073 57.0047 260.999 56.2286 261.858 55.3662C261.927 55.2948 261.858 55.1719 261.756 55.204C260.939 55.346 260.199 55.6287 259.459 55.9601C259.012 56.1649 258.575 56.3828 258.153 56.6312C257.882 56.8155 257.743 57.1164 257.568 57.4043C257.351 57.7928 257.017 58.003 256.665 58.2238C256.309 58.4101 255.968 58.6125 255.556 58.6503C255.233 58.6599 254.902 58.6445 254.575 58.6536C254.367 58.6421 254.104 58.5331 253.908 58.6125C253.568 58.7785 253.46 59.2158 253.481 59.8009Z" fill="#F4CC67"/>
<path d="M237.701 78.1836C236.465 81.5479 234.546 84.6534 232.285 87.4436C234.872 84.8677 237.135 81.944 238.767 78.6424C239.097 77.8974 238.015 77.4274 237.699 78.1809L237.701 78.1836Z" fill="black"/>
<path d="M251.785 79.9105C254.205 82.5432 257.158 84.675 260.306 86.3849C256.936 85 253.734 83.1686 250.972 80.7479C250.384 80.1867 251.206 79.3354 251.785 79.9105Z" fill="black"/>
<g clip-path="url(#clip0_5_801)">
<path d="M35.222 194.695C35.9502 176.086 34.6384 157.334 34.6384 138.726C34.6384 136.851 35.0757 94.7302 34.492 93.1437H30.4083C28.2201 93.1437 22.5337 94.8747 22.5337 91.4127C22.5337 90.5472 24.8665 90.5472 25.3037 90.5472L35.9484 90.6917C39.4485 90.6917 42.9485 90.2599 46.3022 90.2599C48.9277 90.2599 50.8232 89.828 50.8232 92.8564V93.4328C47.4695 93.2883 41.1994 93.5774 37.8457 93.001L37.5548 101.367V121.274C37.5548 129.639 37.5548 137.863 37.8457 146.084C37.9921 149.98 38.4293 154.018 38.4293 157.912V189.647C38.4293 191.667 38.283 194.551 36.6802 196.139C35.952 196.139 35.8057 195.994 35.222 194.697V194.695Z" fill="#BF46BF" stroke="#BF46BF" stroke-linecap="round" stroke-linejoin="round"/>
<path d="M54.3214 194.406C54.3214 191.378 54.7587 188.203 54.7587 185.175L54.4678 141.467C54.4678 137.716 54.905 134.11 54.905 130.36C54.905 128.485 54.0305 117.667 56.3633 117.667C56.9469 117.667 57.6751 117.812 57.9678 118.243C57.8215 128.774 57.5305 139.305 57.5305 149.835C57.5305 150.267 57.6769 150.701 57.8215 151.134V152.144C61.3215 152.144 64.9661 151.713 68.4661 151.713C69.6334 151.713 70.6543 151.857 71.8198 152.144C71.6735 146.086 72.4035 139.883 72.4035 133.68L72.1125 119.255C72.1125 117.958 73.7171 118.101 74.5917 118.101V117.38C75.3199 121.275 75.7589 125.169 75.7589 129.208C75.7589 136.276 75.3217 143.489 75.3217 150.556C75.3217 151.422 75.468 152.287 75.6126 153.153C74.738 158.779 75.9035 165.125 75.9035 170.895V180.126L76.0499 193.398C76.0499 194.552 75.9035 195.418 74.5917 195.418C73.8617 195.418 73.1335 195.273 72.5498 195.129C72.6962 181.57 72.4035 168.875 71.8216 155.46C69.4889 154.161 66.4261 154.306 63.947 154.306C62.1978 154.306 58.1142 154.737 58.1142 157.047L57.8232 183.012C57.8232 187.628 58.2605 191.956 57.095 196.426H56.3668C55.055 196.426 54.325 195.705 54.325 194.406H54.3214Z" fill="#BF46BF" stroke="#BF46BF" stroke-linecap="round" stroke-linejoin="round"/>
<path d="M84.36 194.838C83.9227 170.315 83.7764 145.793 83.7764 121.27C83.7764 119.25 84.0673 118.24 86.2555 118.097L94.1301 117.521C104.191 116.8 104.628 129.204 104.628 136.128C104.628 143.773 105.357 161.661 97.9211 166.421C97.4838 168.728 103.026 188.779 103.026 194.693C103.026 195.414 102.297 195.559 101.714 195.559C101.13 195.559 100.547 195.414 99.9647 195.27C99.3811 192.384 94.4228 167.863 94.4228 167.285C92.0901 167.285 89.611 166.853 87.4228 166.13L87.5691 195.846C86.6946 195.846 84.3618 196.135 84.3618 194.836L84.36 194.838ZM101.712 138.725C101.712 133.676 102.733 120.549 94.8583 120.549C92.2329 120.549 89.6092 120.838 86.9837 121.125V149.832C86.9837 153.87 87.421 158.055 87.2746 161.949C88.7328 162.959 90.9192 163.535 92.6702 163.535C102.878 163.535 101.71 145.36 101.71 138.725H101.712Z" fill="#BF46BF" stroke="#BF46BF" stroke-linecap="round" stroke-linejoin="round"/>
<path d="M124.169 198.445H121.106V198.3C116.001 196.424 114.399 192.531 112.648 187.625L112.794 187.336V186.615C110.752 182.721 110.606 166.132 110.606 161.081V149.541C110.606 145.358 109.585 117.517 118.043 117.517L120.813 117.662C131.312 118.238 130.291 142.04 130.73 148.82L131.021 152.571C130.583 153.726 129.272 153.87 128.251 153.87C127.376 153.87 126.355 153.87 125.625 153.436C125.334 153.436 125.042 153.292 124.897 153.292C122.127 153.581 119.355 154.013 116.585 154.013C116.294 154.013 115.857 153.868 115.564 153.868C114.252 153.868 114.106 160.648 114.106 162.379V174.207C114.106 183.006 115.127 191.085 123.876 195.268V195.413C128.688 195.413 129.562 188.489 130 185.027C130 185.027 130 184.737 130.146 184.882C130.583 183.872 131.313 183.151 132.479 183.151C133.207 183.151 133.207 185.603 133.207 185.892C133.207 191.951 130.728 196.134 125.479 198.73C125.042 198.586 124.604 198.441 124.167 198.441L124.169 198.445ZM120.231 150.697C121.106 150.697 122.127 150.842 123.001 151.129L127.23 150.408V148.966C127.23 144.639 127.813 124.877 124.022 121.846C122.711 120.836 121.543 121.125 120.231 120.981L119.794 120.836C115.129 121.846 113.67 134.684 113.67 138.867C113.67 142.474 112.359 151.129 117.608 151.129C118.482 151.129 119.357 150.697 120.233 150.697H120.231ZM139.334 191.81C137.002 187.193 136.855 173.779 136.855 168.585V145.217C136.855 136.417 135.834 116.366 149.105 116.366C156.542 116.366 156.249 129.06 156.542 133.965L157.126 147.669L157.272 152.717C157.272 154.737 156.544 155.603 154.355 155.746L153.335 155.457V155.312C152.897 155.167 152.167 155.023 151.73 155.023H144.439C140.939 155.023 140.502 156.178 140.502 159.495L140.355 167.285C140.355 174.498 138.46 193.826 147.793 196.567C148.521 196.856 149.397 197.288 150.272 197.288C152.021 197.288 154.063 193.537 154.355 192.24C154.646 191.085 154.209 183.729 155.96 183.729C157.856 183.729 157.856 185.892 157.856 187.336C157.856 192.384 158.146 197.722 152.606 199.742V199.886C151.295 200.463 149.836 200.463 148.378 200.463C144.441 200.463 138.901 195.991 139.338 191.808L139.334 191.81ZM153.916 152.141L154.063 145.217C154.063 141.034 155.812 119.252 148.376 119.252C148.085 119.252 147.793 119.252 147.648 119.396H147.357V119.252C139.336 120.838 140.066 138.437 140.066 144.496C140.066 145.938 139.336 152.141 141.815 152.141C144.878 152.141 147.794 152.573 150.711 152.573C151.732 152.573 152.897 152.428 153.918 152.141H153.916Z" fill="#BF46BF" stroke="#BF46BF" stroke-linecap="round" stroke-linejoin="round"/>
<path d="M189.056 195.127H187.744C187.016 195.127 186.14 195.272 185.558 194.551C183.953 192.388 184.39 174.789 184.39 172.047L184.244 117.81L184.39 92.8546C184.39 90.8345 185.558 90.8345 189.786 90.8345C192.702 90.8345 193.14 90.5454 194.161 90.5454C208.159 90.5454 208.014 107.135 208.014 117.376C208.014 127.618 208.014 131.658 202.912 140.313V141.034C208.454 148.823 208.744 162.961 208.744 172.192C208.744 181.424 208.454 195.85 195.621 195.85C193.432 195.85 191.246 195.129 189.058 195.129L189.056 195.127ZM189.202 139.59C192.265 139.59 195.326 139.59 198.389 139.879C204.659 137.716 204.952 123.29 204.952 118.097C204.952 110.163 204.952 92.7083 193.286 92.7083C191.974 92.7083 189.641 92.8528 188.474 93.2847H187.162V135.984L187.309 139.877C187.892 139.588 188.476 139.588 189.204 139.588L189.202 139.59ZM205.68 172.913C205.68 166.71 206.408 143.197 197.659 142.476C196.054 142.331 194.596 142.331 192.993 142.331C191.244 142.331 189.347 142.331 187.744 143.341L187.598 147.813V164.834L187.744 191.954C190.514 192.386 193.577 192.964 196.347 192.964C206.264 192.964 205.68 179.692 205.68 172.913Z" fill="#BF46BF" stroke="#BF46BF" stroke-linecap="round" stroke-linejoin="round"/>
<path d="M227.698 198.445H224.635V198.3C219.53 196.424 217.927 192.531 216.177 187.625L216.323 187.336V186.615C214.281 182.721 214.135 166.132 214.135 161.081V149.541C214.135 145.358 213.114 117.517 221.572 117.517L224.342 117.662C234.84 118.238 233.82 142.04 234.259 148.82L234.55 152.571C234.112 153.726 232.8 153.87 231.779 153.87C230.905 153.87 229.884 153.87 229.154 153.436C228.863 153.436 228.57 153.292 228.426 153.292C225.656 153.581 222.884 154.013 220.114 154.013C219.823 154.013 219.386 153.868 219.093 153.868C217.781 153.868 217.635 160.648 217.635 162.379V174.207C217.635 183.006 218.656 191.085 227.405 195.268V195.413C232.217 195.413 233.091 188.489 233.529 185.027C233.529 185.027 233.529 184.737 233.675 184.882C234.112 183.872 234.842 183.151 236.008 183.151C236.736 183.151 236.736 185.603 236.736 185.892C236.736 191.951 234.257 196.134 229.008 198.73C228.57 198.586 228.133 198.441 227.696 198.441L227.698 198.445ZM223.76 150.697C224.635 150.697 225.656 150.842 226.53 151.129L230.759 150.408V148.966C230.759 144.639 231.342 124.877 227.551 121.846C226.239 120.836 225.072 121.125 223.76 120.981L223.323 120.836C218.657 121.846 217.199 134.684 217.199 138.867C217.199 142.474 215.887 151.129 221.137 151.129C222.011 151.129 222.886 150.697 223.762 150.697H223.76ZM242.863 191.81C240.53 187.193 240.384 173.779 240.384 168.585V145.217C240.384 136.417 239.363 116.366 252.633 116.366C260.071 116.366 259.778 129.06 260.071 133.965L260.654 147.669L260.801 152.717C260.801 154.737 260.072 155.603 257.884 155.746L256.863 155.457V155.312C256.426 155.167 255.696 155.023 255.259 155.023H247.968C244.468 155.023 244.03 156.178 244.03 159.495L243.884 167.285C243.884 174.498 241.989 193.826 251.321 196.567C252.05 196.856 252.926 197.288 253.801 197.288C255.55 197.288 257.592 193.537 257.884 192.24C258.175 191.085 257.738 183.729 259.489 183.729C261.384 183.729 261.384 185.892 261.384 187.336C261.384 192.384 261.675 197.722 256.135 199.742V199.886C254.823 200.463 253.365 200.463 251.907 200.463C247.97 200.463 242.43 195.991 242.867 191.808L242.863 191.81ZM257.445 152.141L257.592 145.217C257.592 141.034 259.341 119.252 251.905 119.252C251.614 119.252 251.322 119.252 251.177 119.396H250.886V119.252C242.865 120.838 243.595 138.437 243.595 144.496C243.595 145.938 242.865 152.141 245.344 152.141C248.407 152.141 251.323 152.573 254.24 152.573C255.261 152.573 256.426 152.428 257.447 152.141H257.445Z" fill="#BF46BF" stroke="#BF46BF" stroke-linecap="round" stroke-linejoin="round"/>
<path d="M266.046 178.972C266.046 177.817 266.046 173.347 267.795 173.347C268.086 173.347 268.524 173.347 268.816 173.491C269.837 175.222 269.4 183.012 269.984 186.185C270.421 188.637 272.9 194.408 275.963 194.408C279.754 194.408 281.649 184.166 281.649 181.425C281.649 165.702 273.63 160.798 269.546 147.96L268.379 144.353C266.921 139.881 265.754 136.997 265.754 132.091C265.754 126.033 267.649 117.667 275.377 117.667C282.377 117.667 284.127 127.332 284.127 132.814C284.127 133.824 283.98 137.142 282.522 137.142C282.376 137.142 281.794 137.142 281.647 136.853V136.708C280.919 136.132 280.919 135.266 280.919 134.545C280.919 129.641 281.503 126.179 278.149 121.995C277.566 121.274 277.128 120.553 276.107 120.553C270.712 120.553 269.107 127.332 269.107 131.66C269.107 138.007 271.733 144.787 274.356 150.556H274.503V151.277C278.731 161.087 284.564 166.567 284.564 178.252C284.564 183.445 284.273 195.131 278.001 197.004V197.149C277.564 197.293 276.98 197.293 276.543 197.293C268.522 197.293 266.044 184.887 266.044 178.973L266.046 178.972Z" fill="#BF46BF" stroke="#BF46BF" stroke-linecap="round" stroke-linejoin="round"/>
<path d="M309.061 166.71C309.061 160.507 308.623 154.304 308.623 148.101V143.341L309.207 106.558C309.353 100.789 309.061 89.5372 317.228 89.5372C325.395 89.5372 328.31 101.222 329.184 109.733C329.331 111.464 329.038 113.195 328.164 114.637C327.289 114.06 326.414 113.482 325.977 112.474L326.123 108.291C326.123 104.253 322.333 91.9909 317.228 91.9909C313 91.9909 311.979 103.387 311.979 106.56L312.125 123.438C312.125 130.507 311.541 137.431 311.541 144.499C311.541 153.01 311.104 183.736 315.916 190.948C316.937 192.534 318.395 193.4 320.437 193.4C327.582 193.4 327.874 182.869 327.874 177.676C327.874 169.742 327.146 161.808 327.146 154.018C327.146 152.576 327.583 150.124 325.542 150.124C324.667 150.124 320.439 151.422 319.418 152C318.106 152 317.522 151.134 317.522 149.98C317.522 146.95 326.418 147.672 328.46 147.094C331.23 151.711 330.646 169.165 330.646 175.222C330.646 181.857 329.918 195.994 320.73 195.994C308.918 195.994 309.064 174.212 309.064 166.712L309.061 166.71Z" fill="#BF46BF" stroke="#BF46BF" stroke-linecap="round" stroke-linejoin="round"/>
<path d="M333.557 195.416C333.12 188.924 336.911 171.327 338.078 163.537C340.265 148.823 342.599 134.11 344.202 119.252H344.348C344.786 118.531 345.66 118.242 346.535 118.242L346.681 119.107L347.118 121.704L347.556 124.156C349.16 133.387 350.181 142.62 351.639 151.852L357.035 185.751C357.472 188.924 358.202 192.243 358.347 195.416C357.763 195.561 357.179 195.705 356.598 195.705C356.016 195.705 355.43 194.84 355.286 194.263C354.848 190.946 351.495 171.328 351.786 169.453L348.432 169.308H345.953L340.12 169.453C340.266 170.895 336.913 193.542 336.62 194.408C336.329 195.273 335.162 195.707 334.287 195.707C334.141 195.707 333.704 195.562 333.559 195.418L333.557 195.416ZM350.618 165.555C350.909 163.103 350.035 160.218 349.597 157.766C348.869 153.583 345.223 129.636 345.514 127.473C342.888 138.725 342.888 150.265 341.139 161.661C340.993 162.382 340.702 163.392 340.702 164.113V165.7C341.139 165.844 341.723 166.132 342.16 166.132C344.93 166.132 347.847 165.7 350.618 165.555Z" fill="#BF46BF" stroke="#BF46BF" stroke-linecap="round" stroke-linejoin="round"/>
<path d="M363.012 194.838C362.575 170.315 362.429 145.793 362.429 121.27C362.429 119.25 362.72 118.24 364.908 118.097L372.782 117.521C382.843 116.8 383.281 129.204 383.281 136.128C383.281 143.773 384.009 161.661 376.573 166.421C376.136 168.728 381.676 188.779 381.676 194.693C381.676 195.414 380.948 195.559 380.364 195.559C379.781 195.559 379.197 195.414 378.615 195.27C378.032 192.384 373.073 167.863 373.073 167.285C370.741 167.285 368.261 166.853 366.073 166.13L366.22 195.846C365.345 195.846 363.012 196.135 363.012 194.836V194.838ZM380.366 138.725C380.366 133.676 381.387 120.549 373.512 120.549C370.887 120.549 368.263 120.838 365.638 121.125V149.832C365.638 153.87 366.075 158.055 365.929 161.949C367.387 162.959 369.573 163.535 371.324 163.535C381.532 163.535 380.364 145.36 380.364 138.725H380.366Z" fill="#BF46BF" stroke="#BF46BF" stroke-linecap="round" stroke-linejoin="round"/>
<path d="M391.302 194.838L391.155 174.787V157.766C391.155 144.35 390.718 131.08 390.718 117.663C393.051 117.519 395.53 117.232 397.863 117.232C411.277 117.232 413.175 128.483 413.466 139.446C413.757 151.274 413.612 163.248 413.612 175.076C413.612 177.528 413.466 180.124 412.591 182.432C412.882 183.874 409.966 189.067 409.091 190.366V190.51C405.884 195.414 401.509 195.559 396.114 195.559C395.385 195.559 391.302 195.559 391.302 194.838ZM403.114 191.81C408.655 190.223 410.405 175.654 410.405 170.893V143.197C410.405 133.676 410.114 119.973 397.134 119.973C396.114 119.973 394.948 120.262 393.927 120.404C393.781 128.77 394.364 137.138 394.364 145.504C394.364 161.228 394.218 176.807 394.655 192.531C395.384 192.675 396.26 192.82 396.988 192.82C399.176 192.82 400.925 192.531 403.112 191.81H403.114Z" fill="#BF46BF" stroke="#BF46BF" stroke-linecap="round" stroke-linejoin="round"/>
<path d="M420.901 191.233V160.651L421.192 136.849C421.192 130.501 421.046 124.156 421.192 117.808C423.38 118.384 433.732 117.376 436.941 117.232C437.67 117.663 439.567 118.963 439.567 119.973C439.567 120.549 438.692 120.549 438.255 120.549C433.59 120.549 429.069 119.828 424.401 120.838V151.852H427.755C429.36 151.852 435.63 150.986 435.63 153.151V153.44C435.046 154.016 426.297 154.306 424.548 154.595C424.694 166.712 424.257 178.829 424.257 190.946V192.388C425.278 192.532 426.443 192.532 427.464 192.532C430.38 192.532 433.006 191.667 435.922 191.667C437.381 191.667 438.839 191.956 438.839 193.687C438.839 193.976 438.839 194.408 438.692 194.697C433.588 194.697 428.776 195.418 423.673 195.418C423.089 195.418 422.506 195.418 421.924 195.129L421.487 196.139V195.273C420.758 194.552 420.903 192.1 420.903 191.235L420.901 191.233Z" fill="#BF46BF" stroke="#BF46BF" stroke-linecap="round" stroke-linejoin="round"/>
<path d="M466.105 194.838C466.105 188.635 466.543 182.865 464.647 176.951L449.044 128.917L448.753 150.843C448.753 157.623 449.337 164.547 449.337 171.327V190.944C449.337 192.531 449.191 195.127 447.004 195.127C445.837 195.127 445.837 193.828 445.837 192.964C445.837 168.154 446.712 143.054 445.4 118.242C445.691 118.097 446.128 118.097 446.567 118.097C449.63 118.097 451.232 124.877 451.962 127.184L458.67 148.677C461.003 156.467 463.482 164.401 466.252 172.046C466.543 155.167 465.668 138.002 465.377 121.125C465.377 118.818 465.961 118.384 468.294 118.529C468.877 119.25 468.877 121.846 468.877 122.856C468.877 145.649 469.461 168.584 469.461 191.376C469.461 192.531 469.607 194.693 468.44 195.414C468.294 195.414 466.107 195.414 466.107 194.838H466.105Z" fill="#BF46BF" stroke="#BF46BF" stroke-linecap="round" stroke-linejoin="round"/>
</g>
<defs>
<clipPath id="clip0_5_801">
<rect width="448" height="112" fill="white" transform="translate(22 89)"/>
</clipPath>
</defs>
</svg>
